<?xml version="1.0" encoding="utf-8"?>
<!-- Generator: Adobe Illustrator 16.0.0, SVG Export Plug-In . SVG Version: 6.00 Build 0)  -->
<!DOCTYPE svg PUBLIC "-//W3C//DTD SVG 1.1//EN" "http://www.w3.org/Graphics/SVG/1.1/DTD/svg11.dtd">
<svg version="1.1" id="Layer_1" xmlns="http://www.w3.org/2000/svg" xmlns:xlink="http://www.w3.org/1999/xlink" x="0px" y="0px"
	 width="70px" height="70px" viewBox="0 0 70 70" enable-background="new 0 0 70 70" xml:space="preserve">
<circle fill="#FFFFFF" cx="35.021" cy="35.001" r="35"/>
<polygon fill="#F58220" points="28.97,15.163 32.234,19.458 38.385,11.231 44.363,11.231 38.66,19.458 44.363,28.047 38.557,28.047 
	35.36,23.855 32.097,28.047 25.636,19.714 "/>
<g>
	<path fill="#F48220" d="M7.618,40.383l-0.773,0.849v2.063H4.959v-7.82h1.885v3.448L7.5,37.929l1.687-2.455h2.331l-2.643,3.459
		l2.643,4.361H9.283L7.618,40.383z"/>
	<path fill="#F48220" d="M13.88,41.844h3.282v1.45h-5.167v-7.82h1.885V41.844z"/>
	<path fill="#F48220" d="M19.966,43.294h-1.88v-7.82h1.88V43.294z"/>
	<path fill="#F48220" d="M27.604,40.646c-0.025,0.545-0.172,1.025-0.44,1.442s-0.646,0.74-1.13,0.97
		c-0.485,0.229-1.04,0.344-1.663,0.344c-1.028,0-1.837-0.335-2.428-1.004c-0.591-0.67-0.886-1.615-0.886-2.836v-0.387
		c0-0.767,0.133-1.438,0.4-2.012c0.267-0.575,0.65-1.019,1.152-1.332s1.082-0.471,1.74-0.471c0.949,0,1.711,0.25,2.288,0.75
		c0.577,0.499,0.904,1.188,0.983,2.064h-1.88c-0.014-0.476-0.134-0.817-0.36-1.025s-0.569-0.312-1.031-0.312
		c-0.469,0-0.813,0.176-1.031,0.526s-0.333,0.911-0.344,1.682v0.553c0,0.834,0.105,1.431,0.314,1.789
		c0.21,0.357,0.57,0.537,1.083,0.537c0.433,0,0.765-0.103,0.994-0.307s0.351-0.528,0.365-0.973H27.604z"/>
	<path fill="#F48220" d="M31.154,40.383l-0.773,0.849v2.063h-1.885v-7.82h1.885v3.448l0.655-0.993l1.687-2.455h2.331l-2.643,3.459
		l2.643,4.361h-2.234L31.154,40.383z"/>
	<path fill="#183E6D" d="M44.893,39.545c0,0.763-0.141,1.438-0.424,2.024c-0.283,0.588-0.686,1.04-1.205,1.356
		c-0.521,0.317-1.115,0.476-1.781,0.476s-1.257-0.153-1.772-0.459c-0.516-0.307-0.917-0.744-1.206-1.313
		c-0.288-0.569-0.439-1.223-0.453-1.96v-0.441c0-0.766,0.141-1.441,0.422-2.027c0.28-0.585,0.684-1.037,1.207-1.355
		c0.525-0.319,1.123-0.479,1.792-0.479c0.663,0,1.253,0.157,1.772,0.473s0.923,0.764,1.211,1.346c0.289,0.582,0.435,1.248,0.438,2
		V39.545z M42.976,39.218c0-0.777-0.13-1.367-0.39-1.771c-0.26-0.402-0.631-0.604-1.114-0.604c-0.945,0-1.444,0.709-1.499,2.127
		l-0.005,0.575c0,0.767,0.127,1.355,0.382,1.767c0.254,0.412,0.631,0.618,1.133,0.618c0.477,0,0.844-0.202,1.102-0.606
		c0.258-0.405,0.389-0.987,0.392-1.746V39.218z"/>
	<path fill="#183E6D" d="M52.396,43.294h-1.875l-2.771-4.866v4.866h-1.885v-7.82h1.885l2.767,4.866v-4.866h1.88V43.294z"/>
	<path fill="#183E6D" d="M58.337,43.294h-1.88v-7.82h1.88V43.294z"/>
	<path fill="#183E6D" d="M65.631,36.929h-2.348v6.365h-1.885v-6.365h-2.305v-1.455h6.537V36.929z"/>
</g>
<g>
	<path fill="#676767" d="M29.29,57.494h-2.749l-0.533,1.797h-2.26l3.015-9.242h1.149v0.006l0.006-0.006h1.149l3.021,9.242h-2.259
		L29.29,57.494z M27.036,55.844h1.758l-0.863-2.869h-0.038L27.036,55.844z"/>
	<path fill="#676767" d="M38.613,51.699H36.17v7.592h-2.145v-7.592h-2.399v-1.65h6.988V51.699z"/>
	<path fill="#676767" d="M44.147,56.84c0-0.33-0.107-0.582-0.322-0.758c-0.217-0.176-0.607-0.363-1.176-0.563
		c-1.146-0.371-1.998-0.77-2.555-1.189c-0.557-0.422-0.834-1.027-0.834-1.818c0-0.775,0.324-1.4,0.971-1.879
		c0.648-0.479,1.471-0.717,2.469-0.717c1.055,0,1.902,0.246,2.547,0.738c0.643,0.494,0.953,1.188,0.932,2.086l-0.012,0.037h-2.082
		c0-0.436-0.119-0.752-0.355-0.949c-0.236-0.195-0.594-0.295-1.072-0.295c-0.391,0-0.697,0.096-0.922,0.287
		c-0.223,0.189-0.336,0.424-0.336,0.703c0,0.271,0.115,0.488,0.346,0.65c0.23,0.164,0.662,0.367,1.293,0.613
		c1.07,0.318,1.881,0.705,2.43,1.162c0.551,0.457,0.826,1.082,0.826,1.879c0,0.813-0.318,1.447-0.953,1.906
		s-1.477,0.689-2.525,0.689c-1.045,0-1.932-0.246-2.656-0.74c-0.727-0.492-1.078-1.268-1.057-2.326l0.012-0.037h2.088
		c0,0.537,0.133,0.918,0.398,1.145c0.264,0.227,0.668,0.34,1.215,0.34c0.449,0,0.783-0.088,1.002-0.266
		C44.038,57.361,44.147,57.129,44.147,56.84z"/>
</g>
</svg>
